<svg width="350" height="350" viewBox="0 0 350 350" fill="none" xmlns="http://www.w3.org/2000/svg">
<rect width="350" height="350" rx="175" fill="#292524"/>
<path fill-rule="evenodd" clip-rule="evenodd" d="M119.5 110.765C120.735 108.295 123.738 107.294 126.208 108.529L128.517 109.683H132.383H140.794C143.556 109.683 145.794 111.922 145.794 114.683C145.794 117.445 143.556 119.683 140.794 119.683H139.632L152 152.231L211.914 139.258L215.852 138.405L217.445 138.061L207.464 116.284C206.755 114.738 206.881 112.937 207.798 111.505C208.715 110.072 210.298 109.204 211.999 109.201L241.43 109.138C247.784 109.124 254.019 113.561 254.019 121.068C254.019 127.479 248.894 134.262 241.457 134.262H235.561C232.799 134.262 230.561 132.023 230.561 129.262C230.561 126.501 232.799 124.262 235.561 124.262H241.457C241.883 124.262 242.487 124.056 243.081 123.394C243.687 122.717 244.019 121.837 244.019 121.068C244.019 120.424 243.795 120.05 243.489 119.78C243.131 119.464 242.457 119.136 241.451 119.138L219.794 119.184L233.868 149.891C238.299 148.511 243.011 147.767 247.897 147.767C273.911 147.767 295 168.855 295 194.87C295 220.884 273.911 241.972 247.897 241.972C221.883 241.972 200.794 220.884 200.794 194.87C200.794 177.293 210.422 161.964 224.691 153.87L220.443 144.601L220.025 145.125L217.515 148.277L177.686 198.289C179.539 199.741 181.002 201.669 181.891 203.889H186.215C188.976 203.889 191.215 206.128 191.215 208.889C191.215 211.65 188.976 213.889 186.215 213.889H181.891C179.906 218.846 175.058 222.347 169.393 222.347C161.96 222.347 155.935 216.322 155.935 208.889C155.935 208.533 155.948 208.179 155.976 207.83L147.894 206.514C142.91 227.18 124.299 242.533 102.103 242.533C76.0886 242.533 55 221.444 55 195.43C55 169.416 76.0886 148.327 102.103 148.327C115.93 148.327 128.365 154.285 136.982 163.773L143.581 158.228L128.934 119.683H127.336C126.56 119.683 125.795 119.503 125.1 119.155L121.736 117.473C119.266 116.238 118.265 113.235 119.5 110.765ZM142.896 171.865L147.343 168.129L158.752 198.15L149.192 196.593C149.201 196.207 149.206 195.819 149.206 195.43C149.206 186.845 146.909 178.796 142.896 171.865ZM135.088 178.426C137.653 183.391 139.13 189.009 139.203 194.966L119.267 191.719L135.088 178.426ZM102.103 158.327C112.857 158.327 122.542 162.902 129.318 170.212L106.247 189.598L104.68 190.914L98.7049 195.934L97.8152 196.682C97.1604 197.232 97.4535 198.297 98.2977 198.435L99.4447 198.621L107.147 199.876L109.167 200.205L137.986 204.9C133.801 220.804 119.321 232.533 102.103 232.533C81.6115 232.533 65 215.922 65 195.43C65 174.939 81.6115 158.327 102.103 158.327ZM202.067 151.622L155.592 161.685L168.016 194.379L202.067 151.622ZM228.878 163.006C218.046 169.485 210.794 181.33 210.794 194.87C210.794 215.361 227.406 231.972 247.897 231.972C268.389 231.972 285 215.361 285 194.87C285 174.378 268.389 157.767 247.897 157.767C244.498 157.767 241.206 158.224 238.079 159.08L253.564 192.865C254.715 195.375 253.612 198.343 251.102 199.494C248.592 200.644 245.624 199.542 244.473 197.032L228.878 163.006Z" fill="#FAFAF9"/>
</svg>
